<svg width="327" height="334" xmlns="http://www.w3.org/2000/svg" xmlns:xlink="http://www.w3.org/1999/xlink" overflow="hidden"><defs><clipPath id="clip0"><rect x="843" y="208" width="327" height="334"/></clipPath></defs><g clip-path="url(#clip0)" transform="translate(-843 -208)"><path d="M0 0 192.441 0.000104987" stroke="#7F7F7F" stroke-miterlimit="8" stroke-dasharray="4 3" fill="none" fill-rule="evenodd" transform="matrix(-1 0 0 1 1120.94 439.5)"/><path d="M928.5 277.25C928.5 278.217 931.634 279 935.5 279 939.366 279 942.5 278.217 942.5 277.25L942.5 502.75C942.5 503.717 939.366 504.5 935.5 504.5 931.634 504.5 928.5 503.717 928.5 502.75Z" fill="#E6DEF0" fill-rule="evenodd"/><path d="M928.5 277.25C928.5 276.284 931.634 275.5 935.5 275.5 939.366 275.5 942.5 276.284 942.5 277.25 942.5 278.217 939.366 279 935.5 279 931.634 279 928.5 278.217 928.5 277.25Z" fill="#F0EBF6" fill-rule="evenodd"/><path d="M942.5 277.25C942.5 278.217 939.366 279 935.5 279 931.634 279 928.5 278.217 928.5 277.25 928.5 276.284 931.634 275.5 935.5 275.5 939.366 275.5 942.5 276.284 942.5 277.25L942.5 502.75C942.5 503.717 939.366 504.5 935.5 504.5 931.634 504.5 928.5 503.717 928.5 502.75L928.5 277.25" stroke="#002060" stroke-width="1.33333" stroke-miterlimit="8" fill="none" fill-rule="evenodd"/><path d="M6.66669-0.333331 302.458-0.333231 302.458 0.333436 6.66669 0.333336ZM8 4 0 0 8-4ZM301.125-3.9999 309.125 0.000104987 301.125 4.0001Z" transform="matrix(-1 0 0 1 1161.62 504.5)"/><path d="M0.305121-0.396108 180.52 138.423 179.91 139.215-0.305121 0.396108ZM181.599 134.836 185.496 142.887 176.717 141.174Z" transform="matrix(1 0 0 -1 935.5 503.387)"/><path d="M1121.5 360.5 1121.5 505" stroke="#7F7F7F" stroke-miterlimit="8" stroke-dasharray="4 3" fill="none" fill-rule="evenodd"/><text font-family="Cambria Math,Cambria Math_MSFontService,sans-serif" font-weight="400" font-size="16" transform="translate(929.901 223)">𝑦</text><path d="M892.5 504.5 903.504 504.5" stroke="#000000" stroke-width="0.666667" stroke-miterlimit="8" fill="none" fill-rule="evenodd"/><path d="M0 0 0.000104987 90.0289" stroke="#000000" stroke-miterlimit="8" fill="none" fill-rule="evenodd" transform="matrix(1 0 0 -1 879.5 369.529)"/><path d="M0 0 0.000104987 95.9326" stroke="#000000" stroke-miterlimit="8" fill="none" fill-rule="evenodd" transform="matrix(1 0 0 -1 880.5 504.433)"/><text font-family="Cambria Math,Cambria Math_MSFontService,sans-serif" font-weight="400" font-size="16" transform="translate(865.706 395)">1<tspan font-size="16" x="8.83331" y="0"> </tspan>𝑚</text><path d="M874.5 279.5 885.504 279.5" stroke="#000000" stroke-width="0.666667" stroke-miterlimit="8" fill="none" fill-rule="evenodd"/><path d="M928.5 496.5 941.861 496.5" stroke="#4472C4" stroke-miterlimit="8" fill="none" fill-rule="evenodd"/><path d="M0 0 0.000104987 13.2283" stroke="#4472C4" stroke-miterlimit="8" fill="none" fill-rule="evenodd" transform="matrix(1 0 0 -1 935.5 502.728)"/><path d="M928.5 476.5 941.861 476.5" stroke="#4472C4" stroke-miterlimit="8" fill="none" fill-rule="evenodd"/><path d="M0 0 0.000104987 13.2283" stroke="#4472C4" stroke-miterlimit="8" fill="none" fill-rule="evenodd" transform="matrix(1 0 0 -1 935.5 482.728)"/><path d="M928.5 456.5 941.861 456.5" stroke="#4472C4" stroke-miterlimit="8" fill="none" fill-rule="evenodd"/><path d="M0 0 0.000104987 13.2283" stroke="#4472C4" stroke-miterlimit="8" fill="none" fill-rule="evenodd" transform="matrix(1 0 0 -1 935.5 462.728)"/><path d="M929.5 395.5 942.861 395.5" stroke="#4472C4" stroke-miterlimit="8" fill="none" fill-rule="evenodd"/><path d="M0 0 0.000104987 13.2283" stroke="#4472C4" stroke-miterlimit="8" fill="none" fill-rule="evenodd" transform="matrix(1 0 0 -1 935.5 401.728)"/><path d="M928.5 374.5 941.861 374.5" stroke="#4472C4" stroke-miterlimit="8" fill="none" fill-rule="evenodd"/><path d="M0 0 0.000104987 13.2283" stroke="#4472C4" stroke-miterlimit="8" fill="none" fill-rule="evenodd" transform="matrix(1 0 0 -1 935.5 380.728)"/><path d="M928.5 354.5 941.861 354.5" stroke="#4472C4" stroke-miterlimit="8" fill="none" fill-rule="evenodd"/><path d="M0 0 0.000104987 13.2283" stroke="#4472C4" stroke-miterlimit="8" fill="none" fill-rule="evenodd" transform="matrix(1 0 0 -1 935.5 360.728)"/><path d="M929.5 292.5 942.861 292.5" stroke="#4472C4" stroke-miterlimit="8" fill="none" fill-rule="evenodd"/><path d="M0 0 0.000104987 13.2283" stroke="#4472C4" stroke-miterlimit="8" fill="none" fill-rule="evenodd" transform="matrix(1 0 0 -1 935.5 299.728)"/><path d="M0 0 178.871 0.000104987" stroke="#44546A" stroke-miterlimit="8" stroke-dasharray="4 3" fill="none" fill-rule="evenodd" transform="matrix(-1 0 0 1 1121.37 360.5)"/><path d="M928.5 410.125C928.5 411.023 931.41 411.75 935 411.75 938.59 411.75 941.5 411.023 941.5 410.125L941.5 437.875C941.5 438.773 938.59 439.5 935 439.5 931.41 439.5 928.5 438.773 928.5 437.875Z" fill="#2F5597" fill-rule="evenodd" fill-opacity="0.8"/><path d="M928.5 410.125C928.5 409.228 931.41 408.5 935 408.5 938.59 408.5 941.5 409.228 941.5 410.125 941.5 411.023 938.59 411.75 935 411.75 931.41 411.75 928.5 411.023 928.5 410.125Z" fill="#8299C1" fill-rule="evenodd" fill-opacity="0.8"/><path d="M941.5 410.125C941.5 411.023 938.59 411.75 935 411.75 931.41 411.75 928.5 411.023 928.5 410.125 928.5 409.228 931.41 408.5 935 408.5 938.59 408.5 941.5 409.228 941.5 410.125L941.5 437.875C941.5 438.773 938.59 439.5 935 439.5 931.41 439.5 928.5 438.773 928.5 437.875L928.5 410.125" stroke="#002060" stroke-width="1.33333" stroke-miterlimit="8" fill="none" fill-rule="evenodd"/><path d="M934.711 275.361 934.258 242.171 934.924 242.162 935.377 275.352ZM930.61 243.554 934.5 235.5 938.609 243.445Z"/><path d="M935.833 504.5 935.833 527.95 935.167 527.95 935.167 504.5ZM939.5 526.617 935.5 534.617 931.5 526.617Z"/><path d="M928.5 313.5 941.861 313.5" stroke="#4472C4" stroke-miterlimit="8" fill="none" fill-rule="evenodd"/><path d="M0 0 0.000104987 13.2283" stroke="#4472C4" stroke-miterlimit="8" fill="none" fill-rule="evenodd" transform="matrix(1 0 0 -1 935.5 319.728)"/><path d="M929.5 333.5 942.861 333.5" stroke="#4472C4" stroke-miterlimit="8" fill="none" fill-rule="evenodd"/><path d="M0 0 0.000104987 13.2283" stroke="#4472C4" stroke-miterlimit="8" fill="none" fill-rule="evenodd" transform="matrix(1 0 0 -1 935.5 339.728)"/><path d="M935.481 503.711 935.199 446.168 935.866 446.165 936.148 503.707ZM931.539 447.52 935.5 439.5 939.539 447.48Z"/><text font-family="Cambria Math,Cambria Math_MSFontService,sans-serif" font-weight="400" font-size="13" transform="translate(1114.84 517)"> 𝑥<tspan font-size="13" x="-205.264" y="-153"> </tspan>𝑦<tspan font-size="11" x="-17.8429" y="-222">𝑑</tspan><tspan font-size="11" x="-11.3363" y="-222">𝒓</tspan></text><path d="M1107.94 285.864 1109.29 287.03 1109.29 287.341 1107.94 288.507 1107.66 288.185 1108.52 287.438 1106.73 287.438 1105.24 287.438 1103.51 287.438 1103.51 286.933 1105.24 286.933 1106.73 286.933 1108.52 286.933 1107.66 286.187Z" fill-rule="evenodd"/><text font-family="Cambria Math,Cambria Math_MSFontService,sans-serif" font-weight="400" font-size="11" transform="translate(1109.17 295)">′</text><path d="M0.193004-0.461248 180.328 74.9141 179.942 75.8366-0.193004 0.461248ZM180.449 71.1706 186.285 77.9487 177.361 78.5506Z" transform="matrix(1 0 0 -1 935.5 439.449)"/><text font-family="Cambria Math,Cambria Math_MSFontService,sans-serif" font-weight="400" font-size="15" transform="matrix(0.928647 -0.370964 0.370964 0.928647 1001.22 404)">𝒓</text><path d="M1002.42 390.464 1004.72 391.258 1004.88 391.653 1003.76 393.811 1003.24 393.547 1003.95 392.166 1001.63 393.091 999.798 393.824 997.551 394.722 997.296 394.082 999.543 393.184 1001.38 392.452 1003.69 391.527 1002.23 391.016Z" fill-rule="evenodd"/><text font-family="Cambria Math,Cambria Math_MSFontService,sans-serif" font-weight="400" font-size="15" transform="matrix(0.928647 -0.370964 0.370964 0.928647 1011.52 400)">−<tspan font-size="15" x="14.1524" y="0.269226">𝒓</tspan></text><path d="M1025.97 381.059 1028.26 381.853 1028.42 382.248 1027.3 384.405 1026.78 384.141 1027.49 382.761 1025.18 383.686 1023.34 384.419 1021.1 385.316 1020.84 384.677 1023.09 383.779 1024.92 383.047 1027.24 382.122 1025.77 381.611Z" fill-rule="evenodd"/><text font-family="Cambria Math,Cambria Math_MSFontService,sans-serif" font-weight="400" font-size="11" transform="matrix(0.928647 -0.370964 0.370964 0.928647 1030.04 387)">′</text><path d="M1080.21 377.992C1075.04 372.284 1074.19 364.626 1078.31 360.888L1087.68 371.224Z" fill="#FFFFFF" fill-rule="evenodd"/><path d="M1080.21 377.992C1075.04 372.284 1074.19 364.626 1078.31 360.888" stroke="#000000" stroke-width="0.666667" stroke-miterlimit="8" fill="none" fill-rule="evenodd"/><text font-family="Cambria Math,Cambria Math_MSFontService,sans-serif" font-weight="400" font-size="12" transform="translate(1066.35 375)">𝜃</text><text font-family="Cambria Math,Cambria Math_MSFontService,sans-serif" font-weight="400" font-size="13" transform="matrix(-1.83697e-16 -1 1 -1.83697e-16 1136.67 419)">𝑦<tspan font-size="13" x="11" y="2.02067e-15">−</tspan><tspan font-size="13" x="24" y="4.40873e-15">𝑦</tspan><tspan font-size="9" x="32" y="-4.88">′</tspan></text><text font-family="Cambria Math,Cambria Math_MSFontService,sans-serif" font-weight="400" font-size="13" transform="translate(1022.61 355)"> 𝑥<tspan fill="#FFFFFF" font-size="9" x="-93.1112" y="72">𝑑𝑞</tspan><tspan font-size="13" x="-113.376" y="97">𝒓</tspan></text><path d="M914.685 441.636 916.279 443.013 916.279 443.381 914.685 444.759 914.349 444.378 915.365 443.495 913.054 443.495 911.492 443.495 909.246 443.495 909.246 442.899 911.492 442.899 913.054 442.899 915.365 442.899 914.349 442.016Z" fill-rule="evenodd"/><text font-family="Cambria Math,Cambria Math_MSFontService,sans-serif" font-weight="400" font-size="13" transform="translate(916.406 452)">′<tspan font-size="14" x="203.225" y="-99">𝒓</tspan></text><path d="M1125.41 341.524 1127.13 343.007 1127.13 343.404 1125.41 344.887 1125.05 344.477 1126.14 343.527 1123.74 343.527 1121.97 343.527 1119.64 343.527 1119.64 342.884 1121.97 342.884 1123.74 342.884 1126.14 342.884 1125.05 341.934Z" fill-rule="evenodd"/><text font-family="Cambria Math,Cambria Math_MSFontService,sans-serif" font-weight="400" font-size="14" transform="translate(1127.13 353)">(<tspan font-size="14" x="5.83337" y="0">𝑥</tspan><tspan font-size="14" x="13.76" y="0">,</tspan><tspan font-size="14" x="18.9268" y="0">𝑦</tspan><tspan font-size="14" x="27" y="0">)</tspan></text><path d="M0.020165-0.332723 0.685611-0.292393 0.645281 0.373053-0.020165 0.332723ZM1.35106-0.252063 2.0165-0.211733 1.97617 0.453713 1.31073 0.413383ZM2.68195-0.171403 3.34739-0.131073 3.30706 0.534373 2.64162 0.494043ZM4.01284-0.0907426 4.67828-0.0504125 4.63796 0.615033 3.97251 0.574703ZM5.34373-0.0100825 6.00918 0.0302476 5.96885 0.695693 5.3034 0.655363ZM6.70291 0.121402 7.36087 0.228823 7.25345 0.886779 6.59549 0.779357ZM8.01882 0.336245 8.67678 0.443666 8.56936 1.10162 7.9114 0.9942ZM9.33473 0.551087 9.99269 0.658508 9.88527 1.31646 9.22731 1.20904ZM10.6506 0.76593 11.3086 0.873351 11.2012 1.53131 10.5432 1.42388ZM11.9666 0.980772 12.3831 1.04878 12.6523 1.12167 12.478 1.76516 12.2254 1.69674 12.2588 1.70398 11.8591 1.63873ZM13.2957 1.29595 13.9392 1.47023 13.7649 2.11371 13.1215 1.93944ZM14.5827 1.64451 15.2262 1.81878 15.0519 2.46227 14.4084 2.28799ZM15.8697 1.99306 16.5132 2.16734 16.3389 2.81082 15.6954 2.63654ZM17.1566 2.34161 17.8001 2.51589 17.6259 3.15938 16.9824 2.9851ZM18.4743 2.70501 19.0968 2.94344 18.8584 3.56601 18.2358 3.32758ZM19.7194 3.18187 20.342 3.4203 20.1035 4.04287 19.481 3.80444ZM20.9645 3.65873 21.5871 3.89717 21.3487 4.51974 20.7261 4.28131ZM22.2097 4.1356 22.8323 4.37403 22.5938 4.9966 21.9713 4.75817ZM23.4548 4.61246 24.0774 4.85089 23.839 5.47346 23.2164 5.23503ZM24.7117 5.13322 25.3119 5.42342 25.0217 6.02361 24.4215 5.73341ZM25.9121 5.71362 26.5123 6.00382 26.2221 6.60401 25.6219 6.31381ZM27.1125 6.29402 27.7127 6.58422 27.4225 7.18441 26.8223 6.89421ZM28.3129 6.87443 28.913 7.16463 28.6228 7.76482 28.0227 7.47462ZM29.5132 7.45483 30.0334 7.70632 30.135 7.76706 29.793 8.3393 29.704 8.28612 29.7299 8.30009 29.223 8.05502ZM30.7072 8.10909 31.2795 8.45112 30.9374 9.02336 30.3652 8.68133ZM31.8517 8.79315 32.424 9.13518 32.0819 9.70742 31.5097 9.36539ZM32.9962 9.47721 33.5684 9.81924 33.2264 10.3915 32.6542 10.0495ZM34.1407 10.1613 34.7129 10.5033 34.3709 11.0755 33.7987 10.7335ZM35.2852 10.8453 35.4949 10.9707 35.8607 11.2307 35.4744 11.7741 35.1194 11.5217 35.1415 11.5361 34.9431 11.4176ZM36.404 11.6169 36.9474 12.0032 36.5611 12.5466 36.0178 12.1603ZM37.4908 12.3894 38.0341 12.7757 37.6479 13.3191 37.1045 12.9328ZM38.5775 13.1619 39.1209 13.5482 38.7346 14.0916 38.1913 13.7053ZM39.6643 13.9345 40.2076 14.3207 39.8214 14.8641 39.278 14.4778ZM40.7693 14.7286 41.2787 15.1586 40.8487 15.6681 40.3393 15.238ZM41.7881 15.5887 42.2976 16.0187 41.8675 16.5281 41.3581 16.0981ZM42.807 16.4487 43.3164 16.8788 42.8864 17.3882 42.377 16.9582ZM43.8258 17.3088 44.3353 17.7388 43.9052 18.2483 43.3958 17.8182ZM44.8447 18.1689 45.3541 18.5989 44.9241 19.1083 44.4147 18.6783ZM45.8591 19.0752 46.3306 19.5466 45.8591 20.0181 45.3877 19.5466ZM46.802 20.0181 47.2734 20.4895 46.802 20.9609 46.3306 20.4895ZM47.7448 20.9609 48.2162 21.4323 47.7448 21.9037 47.2734 21.4323ZM48.6876 21.9037 49.159 22.3751 48.6876 22.8465 48.2162 22.3751ZM49.6304 22.8465 49.9975 23.2136 50.1119 23.3535 49.596 23.7756 49.492 23.6486 49.5143 23.6732 49.159 23.3179ZM50.5341 23.8695 50.9563 24.3854 50.4403 24.8076 50.0181 24.2916ZM51.3784 24.9014 51.8006 25.4174 51.2846 25.8395 50.8624 25.3236ZM52.2227 25.9333 52.6449 26.4493 52.1289 26.8715 51.7068 26.3555ZM53.0671 26.9653 53.4892 27.4813 52.9732 27.9034 52.5511 27.3874ZM53.9114 27.9972 53.9525 28.0475 54.3146 28.5556 53.7716 28.9425 53.416 28.4434 53.4295 28.4611 53.3954 28.4194ZM54.7014 29.0986 55.0883 29.6415 54.5453 30.0284 54.1585 29.4854ZM55.4751 30.1845 55.862 30.7274 55.319 31.1143 54.9322 30.5713ZM56.2488 31.2704 56.6357 31.8133 56.0927 32.2002 55.7059 31.6572ZM57.0225 32.3563 57.4094 32.8992 56.8664 33.2861 56.4796 32.7431ZM57.7721 33.5004 58.0976 34.0822 57.5158 34.4077 57.1903 33.8259ZM58.4231 34.664 58.7487 35.2458 58.1669 35.5713 57.8413 34.9895ZM59.0742 35.8276 59.3997 36.4094 58.8179 36.7349 58.4924 36.1531ZM59.7252 36.9911 60.0508 37.5729 59.469 37.8985 59.1434 37.3167ZM60.3763 38.1547 60.4856 38.3501 60.6788 38.7811 60.0705 39.0539 59.8833 38.6364 59.8966 38.6628 59.7945 38.4803ZM60.9515 39.3895 61.2242 39.9978 60.6159 40.2705 60.3432 39.6622ZM61.4969 40.6062 61.7696 41.2145 61.1613 41.4872 60.8886 40.8789ZM62.0423 41.8228 62.315 42.4312 61.7067 42.7039 61.434 42.0956ZM62.5877 43.0395 62.8605 43.6479 62.2521 43.9206 61.9794 43.3122ZM63.0926 44.3132 63.2927 44.9491 62.6568 45.1492 62.4567 44.5132ZM63.4928 45.585 63.6928 46.221 63.0569 46.4211 62.8568 45.7851ZM63.8929 46.8569 64.093 47.4929 63.457 47.6929 63.257 47.057ZM64.2931 48.1288 64.4931 48.7647 63.8572 48.9648 63.6571 48.3289ZM64.702 49.4353 64.8327 50.0891 64.179 50.2198 64.0483 49.5661ZM64.9635 50.7428 65.0942 51.3965 64.4405 51.5273 64.3098 50.8735ZM65.225 52.0502 65.3557 52.7039 64.702 52.8347 64.5713 52.181ZM65.4865 53.3577 65.6172 54.0114 64.9635 54.1421 64.8327 53.4884ZM65.7479 54.6651 65.8312 55.0812 65.85 55.3668 65.1848 55.4107 65.1674 55.1469 65.1731 55.1904 65.0942 54.7959ZM65.8939 56.0321 65.9377 56.6973 65.2725 56.7411 65.2286 56.0759ZM65.9816 57.3625 66.0254 58.0277 65.3602 58.0716 65.3164 57.4064ZM66.0693 58.693 66.1132 59.3582 65.4479 59.402 65.4041 58.7368ZM66.157 60.0234 66.2009 60.6886 65.5357 60.7325 65.4918 60.0672ZM66.2448 61.3538 66.2886 62.0191 65.6234 62.0629 65.5795 61.3977ZM66.3325 62.6843 66.3763 63.3495 65.7111 63.3934 65.6672 62.7281ZM66.4202 64.0147 66.4641 64.68 65.7988 64.7238 65.755 64.0586ZM66.5079 65.3452 66.5518 66.0104 65.8866 66.0543 65.8427 65.389ZM66.6157 66.6288 66.7464 67.2825 66.0927 67.4132 65.962 66.7595ZM66.8772 67.9362 67.0079 68.5899 66.3542 68.7207 66.2234 68.0669ZM67.1386 69.2436 67.2694 69.8974 66.6157 70.0281 66.4849 69.3744ZM67.4001 70.5511 67.5309 71.2048 66.8772 71.3355 66.7464 70.6818ZM67.6616 71.8585 67.7019 72.0596 67.693 72.025 67.8315 72.4653 67.1956 72.6653 67.0517 72.2079 67.0079 71.9893ZM68.0316 73.1012 68.2316 73.7371 67.5957 73.9372 67.3956 73.3013ZM68.4317 74.3731 68.6318 75.009 67.9958 75.2091 67.7958 74.5732ZM68.8318 75.645 69.0319 76.2809 68.396 76.481 68.1959 75.845ZM69.232 76.9168 69.432 77.5528 68.7961 77.7528 68.596 77.1169ZM69.6827 78.1317 69.9496 78.7426 69.3387 79.0094 69.0718 78.3985ZM70.2164 79.3535 70.4833 79.9645 69.8723 80.2313 69.6055 79.6204ZM70.7501 80.5754 71.017 81.1863 70.406 81.4532 70.1392 80.8422ZM71.2838 81.7973 71.5507 82.4082 70.9397 82.675 70.6729 82.0641ZM71.8043 82.9857 72.1351 83.5646 71.5563 83.8953 71.2255 83.3165ZM72.4659 84.1434 72.7966 84.7222 72.2178 85.053 71.887 84.4741ZM73.1274 85.301 73.4581 85.8799 72.8793 86.2106 72.5485 85.6318ZM73.7889 86.4587 74.1197 87.0375 73.5408 87.3683 73.2101 86.7895ZM74.4504 87.6164 74.7812 88.1952 74.2023 88.5259 73.8716 87.9471ZM75.1459 88.7164 75.5282 89.2625 74.982 89.6448 74.5997 89.0987ZM75.9105 89.8087 76.2928 90.3548 75.7466 90.7372 75.3643 90.191ZM76.6751 90.901 77.0574 91.4472 76.5112 91.8295 76.1289 91.2833ZM77.4397 91.9933 77.822 92.5395 77.2759 92.9218 76.8935 92.3756ZM78.2043 93.0856 78.2731 93.1838 78.255 93.1603 78.6072 93.5785 78.0972 94.0079 77.7355 93.5783 77.6582 93.4679ZM79.0366 94.0885 79.466 94.5984 78.9561 95.0278 78.5266 94.5179ZM79.8954 95.1083 80.3249 95.6183 79.8149 96.0477 79.3855 95.5378ZM80.7543 96.1282 81.1837 96.6382 80.6738 97.0676 80.2443 96.5576ZM81.6131 97.1481 82.0425 97.658 81.5326 98.0875 81.1032 97.5775ZM82.4739 98.1275 82.9453 98.5989 82.4739 99.0703 82.0025 98.5989ZM83.4167 99.0703 83.8881 99.5417 83.4167 100.013 82.9453 99.5417ZM84.3595 100.013 84.8309 100.485 84.3595 100.956 83.8881 100.485ZM85.3023 100.956 85.7738 101.427 85.3023 101.899 84.8309 101.427ZM86.2452 101.899 86.6732 102.327 86.6544 102.309 86.701 102.349 86.2671 102.855 86.2109 102.807 85.7738 102.37ZM87.2072 102.783 87.7133 103.217 87.2795 103.723 86.7733 103.289ZM88.2195 103.651 88.7257 104.085 88.2918 104.591 87.7856 104.157ZM89.2318 104.519 89.738 104.952 89.3042 105.459 88.798 105.025ZM90.2442 105.386 90.7504 105.82 90.3165 106.326 89.8103 105.893ZM91.2565 106.254 91.4669 106.434 91.4447 106.417 91.7609 106.644 91.3715 107.186 91.0438 106.95 90.8227 106.76ZM92.302 107.034 92.8432 107.423 92.4538 107.964 91.9127 107.575ZM93.3843 107.813 93.9255 108.202 93.5361 108.743 92.995 108.354ZM94.4666 108.591 95.0078 108.981 94.6184 109.522 94.0773 109.132ZM95.5489 109.37 96.0901 109.759 95.7007 110.3 95.1596 109.911ZM96.609 110.126 97.1841 110.463 96.847 111.038 96.2718 110.701ZM97.7592 110.8 98.3344 111.137 97.9972 111.712 97.4221 111.375ZM98.9095 111.474 99.4846 111.811 99.1475 112.387 98.5724 112.049ZM100.06 112.149 100.635 112.486 100.298 113.061 99.7226 112.724ZM101.21 112.823 101.785 113.16 101.448 113.735 100.873 113.398ZM102.353 113.454 102.954 113.744 102.663 114.344 102.063 114.054ZM103.554 114.034 104.154 114.324 103.864 114.925 103.264 114.634ZM104.754 114.615 105.354 114.905 105.064 115.505 104.464 115.215ZM105.954 115.195 106.555 115.485 106.264 116.085 105.664 115.795ZM107.155 115.775 107.645 116.012 107.619 116.001 107.733 116.045 107.495 116.667 107.368 116.619 106.865 116.376ZM108.356 116.283 108.978 116.522 108.74 117.144 108.117 116.906ZM109.601 116.76 110.224 116.999 109.985 117.621 109.363 117.383ZM110.846 117.237 111.469 117.475 111.23 118.098 110.608 117.86ZM112.091 117.714 112.714 117.952 112.475 118.575 111.853 118.336ZM113.336 118.191 113.494 118.251 113.462 118.241 113.943 118.371 113.768 119.014 113.272 118.88 113.098 118.813ZM114.586 118.545 115.229 118.719 115.055 119.363 114.412 119.189ZM115.873 118.894 116.516 119.068 116.342 119.711 115.699 119.537ZM117.16 119.242 117.803 119.417 117.629 120.06 116.986 119.886ZM118.447 119.591 119.09 119.765 118.916 120.409 118.273 120.234ZM119.701 119.898 120.361 119.993 120.266 120.653 119.606 120.558ZM121.021 120.089 121.681 120.184 121.585 120.844 120.926 120.748ZM122.341 120.279 123 120.375 122.905 121.035 122.245 120.939ZM123.66 120.47 124.32 120.566 124.225 121.225 123.565 121.13ZM124.98 120.661 125.092 120.677 124.996 121.337 124.884 121.321ZM124.048 116.91 131.687 121.562 123.382 124.882Z" fill="#002060" transform="matrix(1 0 0 -1 931.5 411.029)"/><path d="M1069.5 275.125C1069.5 276.023 1072.41 276.75 1076 276.75 1079.59 276.75 1082.5 276.023 1082.5 275.125L1082.5 302.875C1082.5 303.773 1079.59 304.5 1076 304.5 1072.41 304.5 1069.5 303.773 1069.5 302.875Z" fill="#2F5597" fill-rule="evenodd" fill-opacity="0.701961"/><path d="M1069.5 275.125C1069.5 274.228 1072.41 273.5 1076 273.5 1079.59 273.5 1082.5 274.228 1082.5 275.125 1082.5 276.023 1079.59 276.75 1076 276.75 1072.41 276.75 1069.5 276.023 1069.5 275.125Z" fill="#8299C1" fill-rule="evenodd" fill-opacity="0.701961"/><path d="M1082.5 275.125C1082.5 276.023 1079.59 276.75 1076 276.75 1072.41 276.75 1069.5 276.023 1069.5 275.125 1069.5 274.228 1072.41 273.5 1076 273.5 1079.59 273.5 1082.5 274.228 1082.5 275.125L1082.5 302.875C1082.5 303.773 1079.59 304.5 1076 304.5 1072.41 304.5 1069.5 303.773 1069.5 302.875L1069.5 275.125" stroke="#002060" stroke-miterlimit="8" fill="none" fill-rule="evenodd"/><path d="M0.333333-1.25991e-06 0.333413 21.1097-0.333254 21.1097-0.333333 1.25991e-06ZM4.00007 19.7764 0.000104987 27.7764-3.99993 19.7764Z" transform="matrix(1 0 0 -1 1092.5 303.276)"/><path d="M1073.5 299.5 1079.47 299.5" stroke="#E7E6E6" stroke-miterlimit="8" fill="none" fill-rule="evenodd"/><path d="M0 0 0.000104987 6.42478" stroke="#E7E6E6" stroke-miterlimit="8" fill="none" fill-rule="evenodd" transform="matrix(1 0 0 -1 1076.5 302.925)"/><path d="M1073.5 290.5 1079.47 290.5" stroke="#E7E6E6" stroke-miterlimit="8" fill="none" fill-rule="evenodd"/><path d="M0 0 0.000104987 6.42478" stroke="#E7E6E6" stroke-miterlimit="8" fill="none" fill-rule="evenodd" transform="matrix(1 0 0 -1 1076.5 293.925)"/><path d="M1073.5 282.5 1079.47 282.5" stroke="#E7E6E6" stroke-miterlimit="8" fill="none" fill-rule="evenodd"/><path d="M0 0 0.000104987 6.42478" stroke="#E7E6E6" stroke-miterlimit="8" fill="none" fill-rule="evenodd" transform="matrix(1 0 0 -1 1076.5 285.925)"/></g></svg>